<svg xmlns="http://www.w3.org/2000/svg" viewBox="0 0 247.15 66.01"><defs><style>.cls-1{fill:#2ca7b2;}.cls-2{fill:#40912c;}</style></defs><title>Asset 5</title><g id="Layer_2" data-name="Layer 2"><g id="_HEADER" data-name="• HEADER"><g id="Layer_65" data-name="Layer 65"><path class="cls-1" d="M103.92,42.88Q107,44.53,110.28,46h.26a9.32,9.32,0,0,1,6.75,2.8l.16.06L122,45a15.51,15.51,0,0,0-11-4.37A12.52,12.52,0,0,0,103.92,42.88Z"/><path class="cls-1" d="M243.14,40.89a9.73,9.73,0,0,0-2-.22c-3.11,0-6.62,2.29-8.37,4.61C236.36,43.89,239.84,42.42,243.14,40.89Z"/><path class="cls-1" d="M205.82,53.17h0c0-3.57,1.88-7.18,6-7.18,2.68,0,4.68,2,5.68,4.35l2.18-.63,3.4-1.61a12.73,12.73,0,0,0-11.55-7.74c-7,0-13.18,5.67-13.18,12.81a12.44,12.44,0,0,0,.08,1.37Q202.21,53.91,205.82,53.17Z"/><path class="cls-1" d="M186.63,45.69c1.22,0,3.71.52,3.71,2.21,0,3.19-13.19,2.18-15.65,8.85,2.77-.08,5.49-.21,8.16-.41a8.61,8.61,0,0,1,3.26-2.53l4.23-1.92v3.76q3.56-.4,7-.95V48.09c0-6.48-5.87-7.84-11-7.84a19.82,19.82,0,0,0-11.49,4l4.74,4.93C181,46.68,183.82,45.69,186.63,45.69Z"/><path class="cls-1" d="M232.18,45.5v-16H225v18.6Q228.67,46.83,232.18,45.5Z"/><path class="cls-1" d="M137.12,40.35a13.24,13.24,0,0,0-13,10.63q3.54,1,7.27,1.86c.11-3.46,2-6.86,6-6.86,2.81,0,4.88,2.15,5.82,4.69l5.44-2.58A12.73,12.73,0,0,0,137.12,40.35Z"/><path class="cls-1" d="M93,36V32.84l-3.21.62C90.83,34.32,91.91,35.16,93,36Z"/><path class="cls-1" d="M80,24c1.25,1.42,2.55,2.79,3.88,4.12a9.32,9.32,0,0,0,1.36-2.2l-5.12-2.2C80.12,23.83,80.07,23.93,80,24Z"/><path class="cls-1" d="M48.07,18.66c1.67.26,4,.86,5.09,2.3,1.77-1.73,3.5-3.53,5.19-5.42-2.43-2.23-6.1-3.28-9.65-3.65-2-.2-7.48-.67-7.48-2.72,0-1.81,4.13-2.44,5.62-2.44,3.15,0,5.75.95,7.6,3.47l6.07-3.59C57.32,1.73,52.12,0,46.53,0,41.18,0,33.85,2.91,33.85,9.29,33.85,17.2,42.2,17.79,48.07,18.66Z"/><path class="cls-1" d="M73.48,15.63a4.88,4.88,0,0,1,1.4-.2,4.64,4.64,0,0,1,4.29,3H75.52c.85,1.15,1.73,2.26,2.63,3.35h7.24c-.16-6.14-4.13-11-10.63-11a11.23,11.23,0,0,0-4,.73C71.66,12.92,72.56,14.3,73.48,15.63Z"/><path class="cls-1" d="M40.82,31.21q3.59-2.51,7-5.39c-4.4-.06-7.13-1.92-8.72-6.29l-6.57,2A13.25,13.25,0,0,0,40.82,31.21Z"/><path class="cls-1" d="M97.88,32.24c4.37,0,8.74-2.28,10.51-6.3l-5.12-2.2A5.72,5.72,0,0,1,98,27.48c-3.26,0-4.72-2.76-4.8-5.67h15.32c-.16-6.14-4.14-11-10.63-11A10.91,10.91,0,0,0,86.81,21.45,11,11,0,0,0,97.88,32.24ZM98,15.43a4.63,4.63,0,0,1,4.29,3H93.7A4.41,4.41,0,0,1,98,15.43Z"/><path class="cls-1" d="M17.9,42.79,30.73,29H19.8L8,41.66V29H0v17.8A92.24,92.24,0,0,0,17.9,42.79Z"/><path class="cls-1" d="M133.36,25.51c0,4.21,3.11,6.26,7,6.26a24.72,24.72,0,0,0,3.47-.32V25.39h-.4A3.11,3.11,0,0,1,141,26.61a1.65,1.65,0,0,1-1.73-1.85V15.23h5.31V11.65H139.3V4.45l-5.94,1.14v6.06h-2.21l-1.22,3.58h3.43Z"/><path class="cls-1" d="M146,26.45a5.24,5.24,0,0,0,4.62,5.27V55.88q3.54.34,7.23.57v-4.8c.42-2.81,2.58-6,5.58-6,1.22,0,2.16.71,2.16,2.54v8.54c2.44.06,4.85.06,7.22,0V45.84c0-3.85-2.91-5.17-6.05-5.17-3.47,0-7.46,2.87-8.91,5.45V29.59a13.08,13.08,0,0,0,1.69-1.72,7.78,7.78,0,0,0,.79,3.43h5.55l.31-.36a3.72,3.72,0,0,1-.86-2.36V17.24c0-5.43-4.92-6.57-9.25-6.57A16.68,16.68,0,0,0,146.43,14l4,4.14a6.58,6.58,0,0,1,5.94-2.92c1,0,3.11.44,3.11,1.86C159.46,20,146,18.7,146,26.45Zm13.46-2.83c0,2.32-2.44,4.13-4.64,4.13a2.21,2.21,0,0,1-2.17-2c0-1.77,2.13-3.15,3.27-3.66l3.54-1.62Z"/><rect class="cls-1" x="167.58" y="1.61" width="6.06" height="29.68"/><path class="cls-1" d="M116,20.23c.35-2.36,2.16-5,4.68-5,1,0,1.82.6,1.82,2.13V31.3h6.06V15.35c0-3.23-2.44-4.33-5.08-4.33-2.91,0-6.26,2.48-7.48,4.57V11.65h-6.06V31.3H116Z"/><path class="cls-2" d="M43.47,40.39c-7,0-13.18,5.54-13.18,12.72A13.12,13.12,0,0,0,43.47,66c5.21,0,10.42-2.72,12.53-7.5l-6.1-2.63a6.79,6.79,0,0,1-6.29,4.46c-3.89,0-5.63-3.29-5.72-6.76H56.14C56,46.21,51.21,40.39,43.47,40.39Zm-5,9.15a5.24,5.24,0,0,1,5.11-3.61,5.53,5.53,0,0,1,5.12,3.61Z"/><path class="cls-2" d="M72.88,53.67c0,3.14-1.55,6.71-5.21,6.71-1.64,0-2.39-1.27-2.39-2.81V41.43H58.06V58.22a6.89,6.89,0,0,0,7.17,7.27,8.64,8.64,0,0,0,7.65-4.78v4.13H80V41.43H72.88Z"/><path class="cls-2" d="M99.33,45.69V43c-.83-.5-1.66-1-2.47-1.52H93V38.82q-3.18-2.26-6.13-4.8l-1,.18v7.23H83.29l-1.46,4.26h4.09V57.94c0,5,3.7,7.46,8.3,7.46A31.22,31.22,0,0,0,98.35,65V57.8h-.47a3.71,3.71,0,0,1-2.81,1.45A2,2,0,0,1,93,57.05V45.69Z"/><path class="cls-2" d="M74.76,32.24a12.35,12.35,0,0,0,7.5-2.5C81,28.52,79.84,27.25,78.68,26a5.52,5.52,0,0,1-3.8,1.53c-3.27,0-4.73-2.76-4.8-5.67h5.13c-.86-1.09-1.7-2.21-2.52-3.35h-2.1a5.07,5.07,0,0,1,1-1.61c-1-1.4-1.9-2.84-2.81-4.32a10.55,10.55,0,0,0-5,8.92A11,11,0,0,0,74.76,32.24Z"/><path class="cls-2" d="M0,49.23V64.84H8V53.39l3.52-3.75,11.54,15.2H33.13L18.3,45.29A77.32,77.32,0,0,1,0,49.23Z"/><path class="cls-2" d="M53.63,23.67a2.88,2.88,0,0,1-1.32,1.23,100.8,100.8,0,0,1-8.75,7.17,20,20,0,0,0,4.39.49c5.94,0,13.22-3.51,13.22-10.32a9,9,0,0,0-1.34-4.94Q56.82,20.66,53.63,23.67Z"/><path class="cls-2" d="M225,50.45V64.84h7.22V51.65A8.07,8.07,0,0,1,234.6,47C231.51,48.21,228.29,49.37,225,50.45Z"/><path class="cls-2" d="M197.33,57q-3.79.59-7.72,1a6,6,0,0,1-4.81,2.6,2.7,2.7,0,0,1-2.51-1.94c-2.62.17-5.29.3-8,.37v0c0,4.08,3.29,6.42,7.13,6.42s6.85-2.11,9-4.73a9.37,9.37,0,0,0,.94,4.08H198l.37-.42a4.49,4.49,0,0,1-1-2.82Z"/><path class="cls-2" d="M211.83,60.33c-3.25,0-5.1-2.2-5.74-4.9-2.35.48-4.75.93-7.19,1.32A13.3,13.3,0,0,0,211.54,66a12.46,12.46,0,0,0,11.64-7.74l-5.63-2.63C216.56,58.18,214.69,60.33,211.83,60.33Z"/><path class="cls-2" d="M245.75,42.19q-3.81,1.8-7.91,3.51c1.18,0,2.08.74,2.08,2.53V64.84h7.23v-19A4.77,4.77,0,0,0,245.75,42.19Z"/><path class="cls-2" d="M142.38,57.18a5.76,5.76,0,0,1-5,3.15c-3.32,0-5.18-2.31-5.78-5.1q-3.94-.85-7.68-1.92A13.14,13.14,0,0,0,137.12,66a12.46,12.46,0,0,0,11.63-7.74l-.81-.38Q145.11,57.58,142.38,57.18Z"/><path class="cls-2" d="M118.92,51.77Q116.43,50.94,114,50l-3.21-.76c-.88-.23-2.82-.65-2.86-1.8q-3-1.37-5.76-2.89A6.18,6.18,0,0,0,101,48.32c0,3.76,3.19,6.38,6.66,7.27l6.66,1.74c.75.19,1.92.75,1.92,1.64,0,1.32-2.25,1.6-3.14,1.6a11.82,11.82,0,0,1-9-3.9l-4.32,4.6c3.15,3.15,8.12,4.41,12.48,4.41,4.88,0,10.94-1.92,10.94-7.88C123.21,55,121.28,53,118.92,51.77Z"/><path class="cls-2" d="M165.59,59.05v5.79h7.22V59.07Q169.26,59.13,165.59,59.05Z"/><path class="cls-2" d="M150.62,58.17v6.67h7.23V58.73Q154.16,58.52,150.62,58.17Z"/></g></g></g></svg>